<?xml version="1.0" standalone="no"?>
<!DOCTYPE svg PUBLIC "-//W3C//DTD SVG 20010904//EN"
 "http://www.w3.org/TR/2001/REC-SVG-20010904/DTD/svg10.dtd">
<svg version="1.0" xmlns="http://www.w3.org/2000/svg"
 width="240.000000pt" height="240.000000pt" viewBox="0 0 240.000000 240.000000"
 preserveAspectRatio="xMidYMid meet">
<metadata>
Created by potrace 1.16, written by Peter Selinger 2001-2019
</metadata>
<g transform="translate(0.000000,240.000000) scale(0.100000,-0.100000)"
fill="#000000" stroke="none">
<path d="M0 1200 l0 -1200 1200 0 1200 0 0 1200 0 1200 -1200 0 -1200 0 0
-1200z m730 720 c33 -17 60 -34 60 -38 0 -5 8 -17 18 -28 66 -71 412 -507 412
-519 0 -7 -4 -16 -8 -19 -4 -2 -170 -6 -367 -7 l-360 -3 -52 25 c-59 27 -66
44 -25 60 68 26 318 134 330 143 14 10 12 42 -7 109 -6 20 -16 54 -22 75 -5
20 -14 51 -19 67 -24 84 -40 147 -40 155 0 16 17 12 80 -20z m618 -630 c2 -13
-1 -49 -7 -79 -11 -56 -33 -174 -52 -286 -10 -55 -23 -125 -35 -182 -3 -17
-11 -23 -31 -23 -24 0 -25 2 -20 38 5 33 44 249 68 377 6 28 14 77 19 109 8
56 23 79 45 73 6 -2 12 -14 13 -27z m-211 -51 c68 -26 78 -149 27 -339 -23
-84 -40 -115 -86 -154 -38 -33 -47 -36 -103 -36 -68 0 -96 14 -120 60 -46 89
25 393 104 449 53 38 113 45 178 20z m-690 -23 c26 -23 28 -29 28 -98 -1 -123
-53 -188 -162 -203 -51 -7 -53 -8 -58 -43 -4 -21 -12 -62 -18 -92 l-13 -55
-58 -3 -58 -3 5 58 c3 32 11 81 16 108 10 49 15 74 46 249 8 49 18 93 21 97 3
5 54 9 114 9 101 0 111 -2 137 -24z m360 0 c25 -22 28 -30 26 -84 -1 -63 -20
-112 -53 -135 -18 -12 -18 -15 -4 -36 13 -18 15 -36 10 -84 -18 -163 -17 -157
-39 -158 -12 0 -35 -2 -51 -3 -44 -3 -57 16 -48 72 3 26 7 65 7 87 0 33 -3 40
-20 40 -21 0 -21 0 -46 -132 l-12 -63 -58 0 c-32 0 -60 4 -63 8 -3 5 -1 24 4
43 5 19 21 104 35 189 23 138 41 231 51 268 2 9 35 12 118 12 107 0 117 -2
143 -24z m758 -50 c23 -10 37 -24 41 -41 7 -27 -1 -121 -16 -190 -5 -22 -14
-66 -21 -97 -11 -50 -10 -60 4 -75 11 -13 13 -23 6 -36 -12 -21 -55 -23 -63
-2 -3 8 -12 15 -19 15 -8 0 -20 -7 -27 -15 -8 -9 -30 -15 -60 -15 -66 0 -85
23 -83 100 1 60 25 111 62 135 12 7 136 53 148 55 1 0 7 18 13 40 16 58 0 82
-48 78 -32 -3 -39 -8 -57 -45 -14 -30 -26 -42 -42 -43 -31 0 -34 11 -14 55 21
47 48 73 87 85 42 12 51 12 89 -4z m335 -1 c42 -22 50 -43 50 -130 0 -124 -37
-239 -95 -298 -23 -22 -37 -27 -76 -27 -26 0 -51 5 -54 10 -14 23 -35 9 -35
-22 0 -40 -24 -121 -36 -125 -5 -1 -15 1 -22 5 -13 8 -11 30 18 197 12 69 57
313 66 353 8 38 31 53 48 30 10 -14 15 -13 46 3 42 23 53 23 90 4z m312 -13
c17 -18 21 -36 19 -89 -1 -28 -5 -33 -26 -33 -19 0 -25 5 -25 23 0 51 -11 67
-45 67 -34 0 -58 -20 -69 -57 -12 -38 3 -62 52 -87 67 -34 85 -58 85 -111 0
-63 -30 -118 -80 -144 -12 -6 -44 -11 -72 -11 -42 0 -53 4 -70 26 -14 17 -21
41 -21 68 0 50 11 69 36 64 14 -3 18 -11 16 -32 -4 -39 22 -76 54 -76 36 0 84
50 84 88 0 33 -12 46 -79 82 -61 33 -78 69 -62 130 14 51 42 86 86 106 36 17
93 10 117 -14z m94 -367 c20 -31 -2 -70 -41 -70 -23 0 -32 6 -40 29 -8 24 -6
31 14 47 29 23 49 21 67 -6z"/>
<path d="M1026 1128 c-18 -28 -44 -149 -53 -245 -6 -69 -5 -73 14 -73 29 0 35
18 73 215 20 101 1 157 -34 103z"/>
<path d="M305 1128 c-15 -47 -22 -87 -16 -97 17 -27 61 22 61 67 0 32 -36 55
-45 30z"/>
<path d="M652 1115 c-7 -14 -12 -39 -12 -55 0 -41 34 -41 55 0 19 37 19 50 -2
66 -25 18 -28 18 -41 -11z"/>
<path d="M1478 930 c-61 -19 -86 -45 -94 -96 -10 -68 36 -95 90 -53 26 21 60
112 54 146 -3 17 -6 17 -50 3z"/>
<path d="M1801 1101 c-46 -46 -74 -150 -69 -255 3 -79 18 -97 65 -80 29 9 59
60 82 136 16 51 17 184 1 203 -17 21 -56 19 -79 -4z"/>
<path d="M2230 760 c0 -5 5 -10 11 -10 5 0 7 5 4 10 -3 6 -8 10 -11 10 -2 0
-4 -4 -4 -10z"/>
<path d="M2270 740 c0 -5 5 -10 10 -10 6 0 10 5 10 10 0 6 -4 10 -10 10 -5 0
-10 -4 -10 -10z"/>
</g>
</svg>
