<?xml version="1.0" standalone="no"?>
<!DOCTYPE svg PUBLIC "-//W3C//DTD SVG 20010904//EN"
 "http://www.w3.org/TR/2001/REC-SVG-20010904/DTD/svg10.dtd">
<svg version="1.0" xmlns="http://www.w3.org/2000/svg"
 width="360.000000pt" height="360.000000pt" viewBox="0 0 360.000000 360.000000"
 preserveAspectRatio="xMidYMid meet">
<metadata>
Created by potrace 1.16, written by Peter Selinger 2001-2019
</metadata>
<g transform="translate(0.000000,360.000000) scale(0.100000,-0.100000)"
fill="#000000" stroke="none">
<path d="M0 2655 l0 -945 940 0 c517 0 943 0 948 0 4 0 6 7 6 15 -1 8 -2 434
-3 945 l-1 930 -945 0 -945 0 0 -945z m1365 412 c26 -32 51 -54 57 -51 7 4 8
2 4 -5 -9 -14 50 -92 67 -88 7 1 11 -4 9 -11 -3 -18 108 -153 121 -145 6 3 7
1 3 -5 -9 -15 103 -154 117 -145 6 4 7 1 2 -6 -4 -7 2 -22 15 -36 15 -16 20
-30 15 -44 -6 -20 -13 -21 -376 -23 -288 -2 -376 0 -395 10 -13 7 -30 10 -36
6 -7 -4 -8 -3 -4 5 5 7 -5 17 -28 26 -19 8 -38 20 -42 26 -4 7 -3 9 3 6 8 -5
384 153 401 168 2 2 -22 97 -52 212 -31 115 -56 212 -56 215 0 4 29 -8 64 -25
47 -24 77 -47 111 -90z m282 -693 c-3 -3 -12 -4 -19 -1 -8 3 -5 6 6 6 11 1 17
-2 13 -5z m-835 -45 c19 -14 27 -16 31 -7 2 7 5 2 5 -12 1 -14 2 -46 3 -71 1
-52 -28 -129 -64 -168 -33 -35 -96 -61 -153 -61 l-50 0 -20 -97 -20 -98 -77
-3 c-54 -2 -77 1 -77 9 0 11 94 465 107 517 l6 24 141 -7 c114 -6 146 -11 168
-26z m450 19 c9 -1 15 -4 13 -6 -2 -3 5 -16 15 -30 40 -50 15 -162 -47 -213
-28 -23 -29 -24 -10 -40 24 -19 25 -49 6 -148 -13 -69 -12 -74 6 -87 10 -8 13
-14 6 -14 -7 0 -9 -5 -5 -12 6 -10 4 -10 -7 0 -8 7 -42 12 -91 12 -76 0 -78 1
-74 23 13 60 26 169 21 178 -4 5 -17 9 -29 9 -21 0 -25 -8 -40 -80 -10 -45
-15 -88 -12 -96 3 -9 1 -12 -4 -9 -6 3 -10 -1 -10 -9 0 -13 -14 -16 -81 -16
-79 0 -81 1 -76 23 3 12 29 133 58 269 l54 247 60 4 c58 4 213 1 247 -5z m442
-2 c51 -21 76 -60 76 -117 0 -54 -44 -276 -65 -325 -8 -20 -10 -36 -4 -43 6
-8 5 -8 -2 -2 -8 7 -24 0 -48 -20 -19 -16 -42 -29 -49 -29 -7 0 -11 -4 -8 -8
8 -13 -167 -7 -192 6 -12 7 -28 10 -35 6 -6 -4 -9 -3 -4 1 4 5 -3 19 -15 33
-30 31 -28 90 6 243 39 172 71 222 162 254 50 18 136 19 178 1z m-404 -220 c0
-2 -8 -10 -17 -17 -16 -13 -17 -12 -4 4 13 16 21 21 21 13z"/>
<path d="M622 2188 c-5 -29 -9 -55 -7 -57 2 -2 15 -1 29 3 16 4 28 17 35 39
14 43 5 67 -24 67 -19 0 -24 -8 -33 -52z"/>
<path d="M1081 2190 c-6 -28 -11 -53 -11 -56 0 -3 12 -4 28 -2 18 2 27 8 26
20 -1 10 2 15 7 12 11 -6 23 41 15 61 -3 8 -16 15 -30 15 -21 0 -26 -7 -35
-50z"/>
<path d="M1572 2237 c-17 -20 -74 -288 -67 -314 7 -28 40 -31 54 -5 16 29 65
297 58 315 -8 20 -30 22 -45 4z"/>
<path d="M1980 2150 l0 -360 35 0 35 0 0 360 0 360 -35 0 -35 0 0 -360z"/>
<path d="M2810 2319 c-20 -4 -47 -21 -62 -38 l-28 -31 0 30 c0 28 -3 30 -35
30 l-35 0 0 -355 0 -355 41 0 40 0 -3 120 c-2 66 0 120 3 120 3 0 16 -11 28
-24 62 -66 178 -28 232 75 61 120 33 338 -52 401 -34 25 -85 36 -129 27z m92
-99 c33 -36 48 -87 48 -165 0 -124 -43 -195 -118 -195 -75 0 -118 85 -110 216
6 88 32 142 79 166 41 21 65 16 101 -22z"/>
<path d="M2265 2306 c-37 -16 -70 -52 -84 -89 -17 -45 -14 -55 23 -59 30 -3
36 0 41 20 11 46 49 72 105 72 66 0 100 -30 100 -89 0 -45 4 -43 -120 -67 -92
-17 -132 -39 -156 -86 -20 -39 -20 -118 1 -158 17 -32 81 -69 120 -70 40 0 97
22 128 50 l32 28 10 -31 c9 -28 15 -32 49 -35 34 -3 38 -1 30 15 -4 10 -11
108 -14 218 -6 224 -13 250 -74 279 -41 20 -148 21 -191 2z m185 -304 c0 -60
-26 -110 -71 -134 -57 -30 -117 -18 -138 29 -30 66 4 107 108 128 41 9 77 18
80 20 14 14 21 0 21 -43z"/>
<path d="M3194 2310 c-32 -13 -72 -67 -80 -107 -10 -53 13 -112 54 -140 18
-12 69 -34 113 -48 101 -34 124 -71 78 -129 -18 -22 -28 -26 -75 -26 -60 0
-87 18 -106 71 -10 30 -38 38 -67 20 -12 -8 -12 -16 3 -55 35 -90 123 -133
220 -106 85 23 139 116 116 198 -14 55 -43 77 -145 112 -123 43 -150 76 -100
125 47 48 140 27 160 -35 7 -21 16 -24 52 -14 19 5 22 11 17 33 -17 73 -72
111 -159 110 -33 0 -69 -4 -81 -9z"/>
</g>
</svg>
